<?xml version="1.0" standalone="no"?>
<!DOCTYPE svg PUBLIC "-//W3C//DTD SVG 20010904//EN"
 "http://www.w3.org/TR/2001/REC-SVG-20010904/DTD/svg10.dtd">
<svg version="1.0" xmlns="http://www.w3.org/2000/svg"
 width="225.000000pt" height="225.000000pt" viewBox="0 0 225.000000 225.000000"
 preserveAspectRatio="xMidYMid meet">

<g transform="translate(0.000000,225.000000) scale(0.100000,-0.100000)"
fill="#000000" stroke="none">
<path d="M874 2220 c-430 -97 -777 -461 -854 -895 -19 -110 -9 -390 19 -488
116 -416 442 -723 864 -813 109 -23 348 -21 464 5 220 48 403 151 563 318 157
162 244 322 291 533 24 109 26 364 4 469 -47 226 -142 399 -309 567 -168 167
-341 262 -567 309 -103 22 -369 19 -475 -5z m460 -156 c163 -37 317 -120 443
-238 178 -168 275 -361 303 -605 20 -169 -8 -332 -86 -500 -40 -84 -120 -211
-144 -226 -5 -3 -31 5 -57 19 -27 13 -100 41 -163 61 -138 45 -220 86 -260
132 -33 38 -37 55 -16 73 21 16 132 190 173 268 38 74 43 130 14 156 -17 15
-20 35 -23 154 -3 125 -6 141 -30 188 -32 61 -99 122 -186 171 -75 42 -198 83
-248 83 -32 0 -37 -4 -51 -38 -12 -31 -26 -44 -69 -65 -71 -35 -130 -90 -162
-151 -24 -46 -27 -64 -30 -184 -4 -125 -6 -135 -28 -157 -28 -28 -31 -69 -10
-119 20 -48 161 -268 185 -290 31 -28 26 -51 -19 -96 -51 -51 -109 -80 -251
-124 -64 -20 -138 -48 -164 -62 -57 -30 -56 -30 -130 81 -192 289 -214 648
-58 960 122 243 355 433 613 500 145 38 310 41 454 9z"/>
</g>
</svg>
