<?xml version="1.0" standalone="no"?>
<!DOCTYPE svg PUBLIC "-//W3C//DTD SVG 20010904//EN"
 "http://www.w3.org/TR/2001/REC-SVG-20010904/DTD/svg10.dtd">
<svg version="1.0" xmlns="http://www.w3.org/2000/svg"
 width="225.000000pt" height="225.000000pt" viewBox="0 0 225.000000 225.000000"
 preserveAspectRatio="xMidYMid meet">

<g transform="translate(0.000000,225.000000) scale(0.100000,-0.100000)"
fill="#000000" stroke="none">
<path d="M60 2243 c-50 -19 -72 -80 -46 -131 16 -32 59 -52 108 -52 33 0 88
-47 88 -76 0 -42 132 -1133 141 -1169 29 -110 126 -234 225 -287 105 -57 121
-58 697 -58 542 0 555 1 584 39 15 20 17 76 2 103 -25 46 -44 48 -601 48
l-523 0 -50 24 c-63 30 -145 117 -145 153 0 10 120 13 599 13 560 0 603 1 660
19 119 37 214 119 273 236 24 47 40 110 74 295 24 129 44 262 44 295 0 76 -32
146 -88 197 -86 78 -24 72 -912 78 l-794 5 -8 42 c-16 97 -97 190 -189 217
-52 16 -110 19 -139 9z m1913 -483 c13 -11 28 -31 31 -45 8 -30 -68 -462 -90
-513 -23 -56 -69 -106 -126 -138 l-53 -29 -612 -3 -612 -3 -5 23 c-5 19 -86
706 -86 722 0 4 344 6 764 6 746 0 764 0 789 -20z"/>
<path d="M575 354 c-45 -23 -66 -45 -86 -89 -79 -171 114 -333 273 -229 66 43
97 143 67 221 -14 38 -57 83 -96 99 -43 19 -121 18 -158 -2z"/>
<path d="M1515 356 c-162 -75 -129 -320 48 -352 79 -14 172 37 203 113 31 73
4 169 -61 219 -30 23 -50 29 -99 31 -37 2 -73 -2 -91 -11z"/>
</g>
</svg>
