<?xml version="1.0" standalone="no"?>
<!DOCTYPE svg PUBLIC "-//W3C//DTD SVG 20010904//EN"
 "http://www.w3.org/TR/2001/REC-SVG-20010904/DTD/svg10.dtd">
<svg version="1.0" xmlns="http://www.w3.org/2000/svg"
 width="225.000000pt" height="225.000000pt" viewBox="0 0 225.000000 225.000000"
 preserveAspectRatio="xMidYMid meet">

<g transform="translate(0.000000,225.000000) scale(0.100000,-0.100000)"
fill="#000000" stroke="none">
<path d="M975 2096 c-312 -49 -584 -247 -725 -526 -275 -547 2 -1199 586
-1383 339 -107 722 -14 978 238 212 209 322 517 287 806 -55 453 -385 796
-831 864 -112 18 -186 18 -295 1z m248 -86 c562 -65 921 -622 747 -1163 -126
-394 -527 -653 -937 -607 -567 63 -928 620 -753 1163 114 355 440 597 830 616
14 0 65 -4 113 -9z"/>
<path d="M1092 1908 c-18 -18 -15 -94 4 -112 35 -36 74 -6 74 58 0 46 -13 66
-45 66 -12 0 -26 -5 -33 -12z"/>
<path d="M672 1578 c-21 -21 -13 -50 52 -196 87 -195 180 -355 242 -416 61
-62 216 -152 414 -241 148 -66 177 -74 198 -53 21 21 13 50 -53 198 -89 198
-179 353 -241 414 -61 62 -221 155 -416 242 -146 65 -175 73 -196 52z m279
-193 c63 -32 150 -81 195 -110 69 -45 87 -63 131 -131 46 -72 152 -273 173
-330 9 -23 9 -23 -28 -7 -79 33 -241 118 -316 166 -68 44 -86 62 -131 131 -47
73 -153 272 -175 332 -8 21 -7 22 14 14 13 -4 75 -34 137 -65z"/>
<path d="M1092 1158 c-28 -28 -7 -78 33 -78 12 0 26 5 33 12 7 7 12 21 12 33
0 12 -5 26 -12 33 -7 7 -21 12 -33 12 -12 0 -26 -5 -33 -12z"/>
<path d="M342 1158 c-15 -15 -15 -51 0 -66 31 -31 128 -6 128 33 0 39 -97 64
-128 33z"/>
<path d="M1796 1154 c-36 -35 -6 -74 58 -74 46 0 66 13 66 45 0 12 -5 26 -12
33 -18 18 -94 15 -112 -4z"/>
<path d="M1096 454 c-19 -18 -22 -94 -4 -112 7 -7 21 -12 33 -12 32 0 45 20
45 66 0 43 -19 74 -45 74 -7 0 -21 -7 -29 -16z"/>
</g>
</svg>
