<?xml version="1.0" standalone="no"?>
<!DOCTYPE svg PUBLIC "-//W3C//DTD SVG 20010904//EN"
 "http://www.w3.org/TR/2001/REC-SVG-20010904/DTD/svg10.dtd">
<svg version="1.0" xmlns="http://www.w3.org/2000/svg"
 width="225.000000pt" height="225.000000pt" viewBox="0 0 225.000000 225.000000"
 preserveAspectRatio="xMidYMid meet">

<g transform="translate(0.000000,225.000000) scale(0.100000,-0.100000)"
fill="#000000" stroke="none">
<path d="M470 2024 c-211 -55 -389 -233 -445 -444 -18 -66 -20 -247 -4 -322
15 -69 65 -179 119 -258 130 -191 642 -636 862 -749 98 -50 138 -53 225 -12
223 106 742 552 882 760 55 80 105 190 120 259 16 75 14 256 -4 322 -43 162
-172 323 -315 393 -108 53 -186 70 -295 65 -148 -7 -264 -67 -408 -211 l-78
-78 -97 93 c-102 98 -189 152 -291 182 -67 20 -196 20 -271 0z m316 -158 c67
-33 96 -57 192 -155 151 -154 141 -154 304 5 152 147 221 187 336 193 141 7
264 -47 369 -162 99 -109 145 -257 125 -397 -24 -168 -95 -286 -286 -475 -258
-255 -624 -534 -701 -535 -74 0 -463 299 -717 552 -124 123 -203 230 -238 326
-72 191 -36 389 96 532 106 114 212 161 355 157 76 -2 93 -6 165 -41z"/>
</g>
</svg>
