<?xml version="1.0" standalone="no"?>
<!DOCTYPE svg PUBLIC "-//W3C//DTD SVG 20010904//EN"
 "http://www.w3.org/TR/2001/REC-SVG-20010904/DTD/svg10.dtd">
<svg version="1.0" xmlns="http://www.w3.org/2000/svg"
 width="230.000000pt" height="220.000000pt" viewBox="0 0 230.000000 220.000000"
 preserveAspectRatio="xMidYMid meet">

<g transform="translate(0.000000,220.000000) scale(0.100000,-0.100000)"
fill="#000000" stroke="none">
<path d="M1088 2187 c-20 -8 -60 -35 -90 -60 -177 -153 -945 -846 -960 -868
-30 -40 -39 -96 -27 -158 9 -45 20 -63 60 -102 27 -26 69 -55 94 -64 l45 -18
0 -378 c0 -209 4 -389 9 -402 13 -35 68 -95 105 -115 27 -15 63 -17 256 -17
124 0 237 3 252 8 15 4 44 21 63 39 67 59 69 68 75 328 l5 235 177 3 177 2 3
-247 c3 -225 5 -252 23 -287 11 -22 33 -49 48 -60 27 -20 42 -21 286 -21 l258
0 48 30 c32 20 56 45 72 74 23 44 23 45 23 428 l0 384 65 30 c35 17 78 46 94
65 56 64 64 161 18 236 -24 39 -983 900 -1029 924 -41 21 -108 26 -150 11z
m575 -576 c254 -225 468 -420 475 -435 16 -36 15 -57 -4 -84 -14 -20 -23 -22
-105 -22 l-89 0 0 -445 0 -444 -22 -13 c-17 -9 -75 -13 -203 -13 -156 0 -185
2 -208 18 l-27 17 0 290 0 290 -330 0 -330 0 0 -290 0 -290 -27 -17 c-23 -16
-51 -18 -203 -18 -152 0 -180 2 -203 18 l-27 17 0 440 0 440 -83 0 c-87 0
-104 8 -120 52 -16 44 17 78 459 469 245 217 466 409 491 427 43 31 47 32 70
17 13 -9 232 -199 486 -424z"/>
</g>
</svg>
