<?xml version="1.0" standalone="no"?>
<!DOCTYPE svg PUBLIC "-//W3C//DTD SVG 20010904//EN"
 "http://www.w3.org/TR/2001/REC-SVG-20010904/DTD/svg10.dtd">
<svg version="1.0" xmlns="http://www.w3.org/2000/svg"
 width="225.000000pt" height="225.000000pt" viewBox="0 0 225.000000 225.000000"
 preserveAspectRatio="xMidYMid meet">

<g transform="translate(0.000000,225.000000) scale(0.100000,-0.100000)"
fill="#000000" stroke="none">
<path d="M695 2230 c-71 -14 -207 -69 -279 -112 -98 -58 -232 -193 -290 -293
-25 -44 -61 -123 -78 -175 -29 -86 -32 -109 -34 -235 -3 -153 7 -219 53 -334
99 -249 310 -439 570 -513 65 -19 102 -22 223 -22 162 1 242 17 362 73 53 25
72 30 87 21 57 -30 157 13 235 102 25 29 54 72 62 95 15 38 15 47 2 80 -14 37
-14 40 19 105 58 118 77 204 77 363 0 105 -4 156 -18 205 -63 227 -204 421
-382 526 -82 48 -183 89 -267 109 -67 16 -273 19 -342 5z m336 -125 c207 -44
404 -204 496 -405 45 -98 63 -182 63 -305 0 -133 -20 -221 -74 -330 -97 -196
-281 -340 -497 -390 -93 -21 -253 -22 -334 0 -104 27 -235 98 -313 170 -168
156 -242 322 -242 546 0 175 42 306 141 440 97 131 241 228 399 269 94 24 260
26 361 5z"/>
<path d="M1649 708 c-19 -29 -60 -73 -90 -97 -30 -24 -55 -48 -57 -52 -5 -13
12 -33 258 -303 122 -135 231 -248 241 -251 36 -12 120 25 169 74 50 50 84
127 74 166 -5 22 -538 515 -556 515 -2 0 -20 -24 -39 -52z"/>
</g>
</svg>
