<?xml version="1.0" standalone="no"?>
<!DOCTYPE svg PUBLIC "-//W3C//DTD SVG 20010904//EN"
 "http://www.w3.org/TR/2001/REC-SVG-20010904/DTD/svg10.dtd">
<svg version="1.0" xmlns="http://www.w3.org/2000/svg"
 width="246.000000pt" height="205.000000pt" viewBox="0 0 246.000000 205.000000"
 preserveAspectRatio="xMidYMid meet">

<g transform="translate(0.000000,205.000000) scale(0.100000,-0.100000)"
fill="#000000" stroke="none">
<path d="M97 1832 c-87 -187 -97 -214 -97 -266 0 -119 46 -205 130 -242 l40
-18 0 -604 c0 -663 -2 -639 60 -676 26 -14 118 -16 1000 -16 1066 0 1012 -3
1045 60 13 25 15 113 15 633 l0 604 41 18 c50 23 102 82 117 134 7 21 12 68
12 105 0 65 -2 71 -106 271 l-106 205 -1027 0 -1028 0 -96 -208z m413 146 c0
-7 -12 -84 -27 -170 l-28 -158 -182 0 c-101 0 -183 3 -183 6 0 3 32 80 71 170
l72 164 138 0 c105 0 139 -3 139 -12z m457 -45 c-4 -32 -10 -109 -13 -170 l-7
-113 -209 0 c-195 0 -209 1 -204 18 6 19 56 301 56 314 0 4 86 8 191 8 l192 0
-6 -57z m446 15 c4 -24 9 -90 12 -148 3 -58 8 -115 11 -127 l4 -23 -210 0
-210 0 4 23 c3 12 8 69 11 127 3 58 8 124 12 148 l5 42 178 0 178 0 5 -42z
m447 35 c0 -5 16 -81 34 -170 l33 -163 -207 0 -207 0 -7 103 c-3 56 -9 132
-12 170 l-7 67 187 0 c102 0 186 -3 186 -7z m430 -154 c41 -88 77 -165 78
-170 2 -5 -75 -9 -180 -9 l-183 0 -33 158 c-18 86 -32 163 -32 170 0 9 34 12
138 12 l137 0 75 -161z m-1850 -292 c0 -68 -26 -116 -78 -145 -139 -78 -292
-1 -292 146 l0 52 185 0 185 0 0 -53z m500 9 c0 -88 -43 -147 -124 -171 -68
-20 -115 -19 -180 6 -74 27 -99 63 -104 146 l-4 63 206 0 206 0 0 -44z m496
-13 c-12 -100 -52 -145 -148 -165 -45 -9 -71 -9 -115 0 -97 20 -140 68 -150
167 l-6 55 213 0 213 0 -7 -57z m492 -6 c-5 -83 -30 -119 -104 -146 -65 -25
-112 -26 -180 -6 -81 24 -124 83 -124 171 l0 44 206 0 206 0 -4 -63z m462 11
c-1 -110 -79 -183 -190 -176 -117 8 -180 67 -180 169 l0 59 185 0 185 0 0 -52z
m-1811 -208 c121 -61 308 -35 376 54 l28 37 23 -34 c47 -69 182 -107 297 -82
76 16 126 43 156 83 l20 27 31 -37 c89 -107 336 -108 431 0 l33 37 36 -36 c32
-33 60 -46 168 -75 9 -3 12 -128 12 -583 0 -319 -3 -586 -6 -595 -5 -14 -27
-16 -140 -16 l-133 0 -3 433 -3 432 -24 38 c-13 21 -42 50 -64 65 -40 27 -43
27 -241 30 -128 2 -215 0 -238 -7 -48 -15 -94 -54 -118 -102 -19 -36 -20 -61
-20 -464 l0 -425 -462 2 -463 3 -3 590 -2 590 75 24 c60 18 82 31 107 61 l31
37 30 -34 c17 -19 46 -43 66 -53z m1207 -344 l34 -34 0 -421 0 -421 -265 0
-265 0 0 423 c0 385 2 424 18 443 32 40 51 43 251 44 l193 0 34 -34z"/>
<path d="M571 946 c-8 -9 -11 -91 -9 -277 l3 -264 190 -3 c170 -2 191 -1 202
15 16 22 18 494 3 524 -10 18 -23 19 -194 19 -143 0 -186 -3 -195 -14z m309
-271 l0 -196 -117 3 -118 3 -3 193 -2 192 120 0 120 0 0 -195z"/>
<path d="M1360 486 c-27 -33 18 -72 48 -42 13 13 14 20 6 34 -15 23 -38 26
-54 8z"/>
</g>
</svg>
